<?xml version="1.0" encoding="utf-8"?>
<!-- Generator: Adobe Illustrator 28.3.0, SVG Export Plug-In . SVG Version: 6.00 Build 0)  -->
<svg version="1.1" id="Слой_1" xmlns="http://www.w3.org/2000/svg" xmlns:xlink="http://www.w3.org/1999/xlink" x="0px" y="0px"
	 viewBox="0 0 30 30" style="enable-background:new 0 0 30 30;" xml:space="preserve">
<style type="text/css">
	.st0{fill:#020203;stroke:#000000;stroke-width:0.5;stroke-miterlimit:10;}
</style>
<g transform="translate(1.4065934065934016 1.4065934065934016) scale(2.81 2.81)">
	<path class="st0" d="M4.7,0.2c1.8,0,3.3,1.5,3.3,3.3c0,0.8-0.3,1.5-0.8,2.1L4.7,8.5L2.2,5.6C1.7,5,1.4,4.3,1.4,3.5
		C1.4,1.7,2.9,0.2,4.7,0.2 M4.7,5c0.9,0,1.6-0.7,1.6-1.6c0-0.9-0.7-1.6-1.6-1.6S3,2.5,3,3.4C3,4.3,3.8,5,4.7,5 M4.7,0
		C2.7,0,1.2,1.6,1.2,3.5c0,0.9,0.3,1.6,0.8,2.2l2.6,3.1l2.6-3.1c0.5-0.6,0.8-1.4,0.8-2.2C8.1,1.6,6.6,0,4.7,0L4.7,0z M4.7,4.8
		c-0.8,0-1.4-0.6-1.4-1.4c0-0.8,0.6-1.4,1.4-1.4s1.4,0.6,1.4,1.4S5.5,4.8,4.7,4.8L4.7,4.8z"/>
	<path class="st0" d="M6.2,7.8L6,8c1.1,0.2,1.7,0.5,1.7,0.8c0,0.4-1.2,0.9-3,0.9s-3-0.5-3-0.9c0-0.3,0.6-0.6,1.7-0.8L3.2,7.8
		C2.1,8,1.4,8.3,1.4,8.7c0,0.6,1.4,1.1,3.2,1.1c1.8,0,3.2-0.5,3.2-1.1C7.9,8.3,7.2,8,6.2,7.8z"/>
</g>
</svg>
